<svg xmlns="http://www.w3.org/2000/svg" width="123.283" height="100.298"><path d="M123.283 12.015a49.348 49.348 0 01-12.537 13.06v3.134q0 27.425-19.72 49.757T38.657 100.3A69.772 69.772 0 010 88.806a55.188 55.188 0 006.007.522 49.132 49.132 0 0031.343-10.97 25.426 25.426 0 01-14.627-5.093 23.928 23.928 0 01-8.881-12.407 31.427 31.427 0 004.7.522 29.36 29.36 0 006.791-1.045 25.532 25.532 0 01-14.5-8.75 24.072 24.072 0 01-5.87-16.063v-.261A23.814 23.814 0 0016.455 38.4Q5.224 31.082 5.224 17.239A25.131 25.131 0 018.619 4.7Q28.731 29.515 60.6 31.082a22.83 22.83 0 01-.522-5.746 24.491 24.491 0 017.313-18.022A24.491 24.491 0 0185.41 0a24.134 24.134 0 0118.284 8.1 47.079 47.079 0 0016.194-6.269 23.166 23.166 0 01-11.231 14.1 43.136 43.136 0 0014.626-3.916zm0 0" fill="#f5f5fc"/></svg>